<?xml version="1.0" encoding="UTF-8"?>
<svg xmlns="http://www.w3.org/2000/svg" viewBox="0 0 1200 320" width="1200" height="320">
  <rect width="1200" height="320" fill="#0f1219"></rect>
  <defs>
    <linearGradient id="plate" x1="0" y1="0" x2="0" y2="1"><stop offset="0%" stop-color="#1c2333"></stop><stop offset="55%" stop-color="#141826"></stop><stop offset="100%" stop-color="#0b0e16"></stop></linearGradient>
    <linearGradient id="bevel" x1="0" y1="0" x2="0" y2="1"><stop offset="0%" stop-color="#ffffff" stop-opacity="0.18"></stop><stop offset="40%" stop-color="#ffffff" stop-opacity="0"></stop></linearGradient>
    <radialGradient id="ambient" cx="30%" cy="20%" r="80%"><stop offset="0%" stop-color="#53ccff" stop-opacity="0.18"></stop><stop offset="55%" stop-color="#53ccff" stop-opacity="0"></stop></radialGradient>
    <linearGradient id="mc" x1="0" y1="0" x2="0" y2="1"><stop offset="0%" stop-color="#7ad9ff"></stop><stop offset="100%" stop-color="#3eb8ee"></stop></linearGradient>
    <linearGradient id="mv" x1="0" y1="0" x2="0" y2="1"><stop offset="0%" stop-color="#b59cff"></stop><stop offset="100%" stop-color="#8a6bff"></stop></linearGradient>
  </defs>
  <g transform="translate(60 60) scale(1.5625)">
    <rect x="0" y="0" width="128" height="128" rx="28" fill="url(#plate)"></rect>
    <rect x="0" y="0" width="128" height="128" rx="28" fill="url(#ambient)"></rect>
    <rect x="0" y="0" width="128" height="64" rx="28" fill="url(#bevel)"></rect>
    <rect x="0.5" y="0.5" width="127" height="127" rx="27.5" fill="none" stroke="#2a3347" stroke-opacity="0.7"></rect>
    <rect x="30" y="22" width="18" height="84" rx="3" fill="url(#mc)"></rect>
    <path d="M48 22 H82 a16 16 0 0 1 16 16 v16 a16 16 0 0 1 -16 16 H48 Z" fill="url(#mc)"></path>
    <path d="M48 36 H80 a8 8 0 0 1 8 8 v4 a8 8 0 0 1 -8 8 H48 Z" fill="#0f1219"></path>
    <rect x="62" y="34" width="6" height="24" rx="1.5" fill="url(#mv)"></rect>
    <rect x="58" y="34" width="14" height="3" rx="1" fill="url(#mv)"></rect>
    <rect x="58" y="55" width="14" height="3" rx="1" fill="url(#mv)"></rect>
  </g>
  
      <g transform="translate(268 60) scale(0.14)">
        <path d="M180.66 1000L87.89 1000L87.89 272.46L336.91 272.46Q421.88 272.46 476.81 303.47Q531.74 334.47 558.35 386.72Q584.96 438.96 584.96 503.91L584.96 503.91Q584.96 568.85 558.35 621.58Q531.74 674.32 477.05 705.57Q422.36 736.82 337.40 736.82L337.40 736.82L161.13 736.82L161.13 655.27L333.01 655.27Q390.63 655.27 425.78 635.50Q460.94 615.72 476.81 581.30Q492.68 546.88 492.68 503.91L492.68 503.91Q492.68 460.94 476.81 427.00Q460.94 393.07 425.54 373.54Q390.14 354.00 332.03 354.00L332.03 354.00L180.66 354.00L180.66 1000Z M843.65 1012.70L843.65 1012.70Q791.89 1012.70 749.66 993.16Q707.42 973.63 682.52 936.04Q657.62 898.44 657.62 844.73L657.62 844.73Q657.62 797.85 676.17 768.55Q694.73 739.26 725.73 722.41Q756.74 705.57 794.34 697.27Q831.93 688.96 870.02 684.08L870.02 684.08Q918.85 677.73 949.61 674.32Q980.37 670.90 995.26 662.60Q1010.16 654.30 1010.16 634.28L1010.16 634.28L1010.16 631.35Q1010.16 597.17 997.46 573.49Q984.77 549.80 959.38 537.11Q933.98 524.41 895.90 524.41L895.90 524.41Q856.84 524.41 829.00 536.62Q801.17 548.83 783.84 567.14Q766.50 585.45 757.71 604.49L757.71 604.49L673.24 576.66Q694.24 526.86 729.88 498.78Q765.53 470.70 808.50 458.98Q851.46 447.27 893.46 447.27L893.46 447.27Q920.80 447.27 955.71 453.86Q990.63 460.45 1023.10 479.98Q1055.57 499.51 1076.81 537.84Q1098.05 576.17 1098.05 640.14L1098.05 640.14L1098.05 1000L1011.62 1000L1011.62 925.78L1005.76 925.78Q996.48 944.82 975.98 965.09Q955.47 985.35 922.75 999.02Q890.04 1012.70 843.65 1012.70ZM858.79 935.06L858.79 935.06Q907.62 935.06 941.31 916.02Q975 896.97 992.58 866.46Q1010.16 835.94 1010.16 802.73L1010.16 802.73L1010.16 727.05Q1004.79 733.40 986.72 738.53Q968.65 743.65 945.46 747.56Q922.27 751.46 900.54 754.15Q878.81 756.84 866.11 758.30L866.11 758.30Q834.38 762.21 806.79 771.73Q779.20 781.25 762.60 799.56Q746.00 817.87 746.00 849.12L746.00 849.12Q746.00 877.44 760.64 896.48Q775.29 915.53 800.68 925.29Q826.07 935.06 858.79 935.06Z M1412.89 1011.72L1412.89 1011.72Q1356.74 1011.72 1313.04 995.36Q1269.34 979.00 1241.02 946.78Q1212.70 914.55 1202.93 867.68L1202.93 867.68L1286.43 847.66Q1298.14 892.58 1330.62 913.57Q1363.09 934.57 1411.91 934.57L1411.91 934.57Q1469.04 934.57 1502.98 910.16Q1536.91 885.74 1536.91 852.05L1536.91 852.05Q1536.91 823.73 1517.14 804.93Q1497.36 786.13 1456.84 776.86L1456.84 776.86L1366.02 755.37Q1291.80 737.79 1255.66 700.93Q1219.53 664.06 1219.53 606.45L1219.53 606.45Q1219.53 559.57 1245.90 523.68Q1272.27 487.79 1317.92 467.53Q1363.57 447.27 1421.68 447.27L1421.68 447.27Q1477.83 447.27 1517.14 464.11Q1556.45 480.96 1581.10 510.50Q1605.76 540.04 1617.97 578.61L1617.97 578.61L1538.38 599.12Q1527.15 569.82 1501.03 545.90Q1474.90 521.97 1422.17 521.97L1422.17 521.97Q1373.34 521.97 1340.87 544.43Q1308.40 566.89 1308.40 601.07L1308.40 601.07Q1308.40 631.35 1330.37 649.66Q1352.34 667.97 1400.20 679.20L1400.20 679.20L1482.71 698.73Q1556.93 716.31 1592.58 753.17Q1628.22 790.04 1628.22 846.19L1628.22 846.19Q1628.22 894.04 1601.12 931.40Q1574.02 968.75 1525.44 990.23Q1476.86 1011.72 1412.89 1011.72Z M1662.79 454.10L1945.02 454.10L1945.02 529.30L1662.79 529.30L1662.79 454.10ZM1744.82 865.23L1744.82 324.22L1832.71 324.22L1832.71 858.40Q1832.71 895.02 1847.61 911.87Q1862.50 928.71 1897.17 928.71L1897.17 928.71Q1905.47 928.71 1918.41 926.76Q1931.35 924.80 1942.09 922.85L1942.09 922.85L1960.16 997.07Q1946.48 1001.95 1929.15 1004.39Q1911.82 1006.84 1894.73 1006.84L1894.73 1006.84Q1823.93 1006.84 1784.38 969.48Q1744.82 932.13 1744.82 865.23L1744.82 865.23Z M2261.82 1011.72L2261.82 1011.72Q2182.71 1011.72 2125.34 976.56Q2067.97 941.41 2036.96 878.42Q2005.96 815.43 2005.96 731.45L2005.96 731.45Q2005.96 647.46 2036.23 583.50Q2066.50 519.53 2121.92 483.40Q2177.34 447.27 2251.56 447.27L2251.56 447.27Q2295.02 447.27 2337.26 461.67Q2379.49 476.07 2413.92 508.06Q2448.34 540.04 2468.85 592.29Q2489.36 644.53 2489.36 720.21L2489.36 720.21L2489.36 756.84L2065.53 756.84L2065.53 682.62L2441.99 682.62L2400.98 709.96Q2400.98 656.25 2384.13 614.50Q2367.29 572.75 2334.08 549.07Q2300.88 525.39 2251.56 525.39L2251.56 525.39Q2202.25 525.39 2167.09 549.56Q2131.93 573.73 2113.38 612.55Q2094.82 651.37 2094.82 695.80L2094.82 695.80L2094.82 745.12Q2094.82 805.66 2115.82 847.90Q2136.82 890.14 2174.66 911.87Q2212.50 933.59 2262.30 933.59L2262.30 933.59Q2294.53 933.59 2320.90 924.32Q2347.27 915.04 2366.31 896.24Q2385.35 877.44 2395.61 849.61L2395.61 849.61L2480.57 873.05Q2467.87 914.06 2437.60 945.31Q2407.32 976.56 2362.65 994.14Q2317.97 1011.72 2261.82 1011.72Z" fill="#eef2f9"></path>
      </g>
      <g transform="translate(619.845703125 60) scale(0.14)">
        <path d="M180.66 1000L87.89 1000L87.89 272.46L527.83 272.46L527.83 354.49L180.66 354.49L180.66 603.52L494.63 603.52L494.63 685.55L180.66 685.55L180.66 1000Z M642.48 272.46L730.37 272.46L730.37 1000L642.48 1000L642.48 272.46Z M1081.84 1011.72L1081.84 1011.72Q1007.62 1011.72 951.71 976.56Q895.80 941.41 864.55 877.93Q833.30 814.45 833.30 730.47L833.30 730.47Q833.30 645.02 864.55 581.30Q895.80 517.58 951.71 482.42Q1007.62 447.27 1081.84 447.27L1081.84 447.27Q1156.54 447.27 1212.70 482.42Q1268.85 517.58 1300.10 581.30Q1331.35 645.02 1331.35 730.47L1331.35 730.47Q1331.35 814.45 1300.10 877.93Q1268.85 941.41 1212.70 976.56Q1156.54 1011.72 1081.84 1011.72ZM1081.84 933.11L1081.84 933.11Q1137.01 933.11 1172.66 904.79Q1208.30 876.46 1225.39 830.32Q1242.48 784.18 1242.48 730.47L1242.48 730.47Q1242.48 676.27 1225.39 629.64Q1208.30 583.01 1172.66 554.44Q1137.01 525.88 1081.84 525.88L1081.84 525.88Q1027.15 525.88 991.99 554.44Q956.84 583.01 939.75 629.39Q922.66 675.78 922.66 730.47L922.66 730.47Q922.66 784.18 939.75 830.32Q956.84 876.46 991.99 904.79Q1027.15 933.11 1081.84 933.11Z M1644.24 1000L1556.84 1000L1391.31 454.10L1484.57 454.10L1550.98 692.38Q1564.65 741.21 1580.27 802.98Q1595.90 864.75 1611.04 942.87L1611.04 942.87L1595.90 942.87Q1610.55 868.16 1625.68 806.15Q1640.82 744.14 1654.98 692.38L1654.98 692.38L1720.41 454.10L1814.16 454.10L1878.61 692.38Q1892.29 742.68 1907.18 804.44Q1922.07 866.21 1936.72 942.87L1936.72 942.87L1921.09 942.87Q1936.72 867.19 1952.10 805.42Q1967.48 743.65 1981.64 692.38L1981.64 692.38L2048.05 454.10L2141.31 454.10L1975.78 1000L1888.38 1000L1817.58 752.93Q1806.84 715.33 1796.58 676.27Q1786.33 637.21 1776.56 596.19Q1766.80 555.18 1756.54 512.70L1756.54 512.70L1776.07 512.70Q1766.31 554.69 1756.30 595.95Q1746.29 637.21 1736.04 676.76Q1725.78 716.31 1715.04 752.93L1715.04 752.93L1644.24 1000Z" fill="#53ccff"></path>
      </g>
</svg>